<?xml version="1.0" encoding="UTF-8"?>
<svg id="Laag_1" data-name="Laag 1" xmlns="http://www.w3.org/2000/svg" viewBox="0 0 116 135">
  <defs>
    <style>
      .cls-1 {
        fill: #4ecdd0;
      }

      .cls-2 {
        fill: #57d1d3;
      }

      .cls-3 {
        fill: #fefefe;
      }
    </style>
  </defs>
  <path class="cls-1" d="M5,135v-43h103v43H5ZM11,131v-37c-.65-.08-2,1.33-2,1.5v35.5h2ZM15,94c-.7.15-2.14-.54-2.02.61l.02,36.4c.66.06,1.34-.06,2,0,.32.02.68.02,1,0,.66-.05,1.34.07,2,0l.02-36.4c.12-1.14-1.32-.45-2.02-.61-.25-.05-.75-.05-1,0ZM22,131v-35.5c0-1.48-3-1.48-3,0v34c0,.65,2.14,1.92,3,1.5ZM25,94h-2v37h2v-37ZM28,131v-37h-1v37h1ZM32,94h-2v37h2v-37ZM74,128c.68,1.94,5.4,1.79,6-1.5.95-5.22.43-21.11.04-27.05-.07-1.11.39-1.98-1.04-2.45-1.16-.38-3.57.24-5.01,0v31.01ZM86,97c-1.27.07-4.84-.53-5.02.58v30.43c1.61.17,3.47-.25,5.02,0,2.84.44,12.88,2.48,14.56.06.97-1.38.49-21.85.45-25.58-.02-1.69.64-4.45-1.02-5.49-1.65-.06-3.34.09-5,0-.66-.04-1.34.02-2,0-1.65-.05-3.35-.05-5,0-.66.02-1.34-.04-2,0Z"/>
  <path class="cls-2" d="M115,6v62c-.13,2.9-2.96,4.53-5.56,4.94-6.04.95-39.02-1.38-40.45.05v7.01h45.01c.44,3.37-.79,6-4.45,6.05-34.65-.91-69.46,1.04-104.1,0-1.9-.06-3.79.09-5.45-1.04v-5h44.5c3.56-.4,2.4-4.31,2.5-7H5.5c-1.01,0-4.13-3.42-5.5-4V5L6.44,1.94c33.02,2.55,70.66-3.19,103.11,0,3.3.32,4.85.31,5.44,4.06ZM111,5H5.5c-.11,0-1.5,1.39-1.5,1.5v60c0,.18,2.32,2.5,2.5,2.5h103c.11,0,1.5-1.39,1.5-1.5V5Z"/>
  <path class="cls-3" d="M116,68v67h-8v-43H5v43H0v-50c1.66,1.13,3.55.98,5.45,1.04,34.63,1.04,69.44-.9,104.1,0,3.66-.04,4.89-2.67,4.45-6.05h-45v-7.01c1.42-1.43,34.4.89,40.44-.05,2.6-.41,5.42-2.04,5.56-4.94h1Z"/>
  <path class="cls-3" d="M0,69c1.37.58,4.49,4,5.5,4h41.5c-.1,2.69,1.07,6.6-2.5,7H0v-11Z"/>
  <path class="cls-3" d="M0,5V0h116v6h-1c-.59-3.74-2.15-3.73-5.44-4.06-32.46-3.19-70.1,2.55-103.11,0L0,5Z"/>
  <rect class="cls-1" x="115" y="6" width="1" height="62"/>
  <path class="cls-3" d="M100,97v31.01s-4.42.01-4.42.01l-.58-31.02c1.66.09,3.35-.06,5,0Z"/>
  <path class="cls-3" d="M93,97l-.58,31.02h-4.43s0-31.02,0-31.02c1.65-.05,3.35-.05,5,0Z"/>
  <path class="cls-3" d="M86,97v31c-1.54-.24-3.4.18-5.01,0v-30.43c.16-1.11,3.73-.51,5.01-.58Z"/>
  <path class="cls-3" d="M79,97c-1.05,9.29,1.41,21.53.02,30.42-.2,1.26-3.82.3-5.02.58v-31.01c1.43.25,3.84-.37,5,0Z"/>
  <path class="cls-3" d="M22,131c-.86.42-3-.85-3-1.5v-34c0-1.48,3-1.48,3,0v35.5Z"/>
  <path class="cls-3" d="M15,94v37c-.66-.05-1.34.07-2,0l-.02-36.4c-.12-1.14,1.32-.45,2.02-.61Z"/>
  <path class="cls-3" d="M16,94c.7.15,2.14-.54,2.02.61l-.02,36.4c-.66.06-1.34-.06-2,0v-37Z"/>
  <rect class="cls-3" x="23" y="94" width="2" height="37"/>
  <rect class="cls-3" x="30" y="94" width="2" height="37"/>
  <path class="cls-2" d="M88,97v31.01s4.42.01,4.42.01l.58-31.02c.66.02,1.34-.04,2,0l.58,31.02h4.43s0-31.02,0-31.02c1.66,1.04,1,3.79,1.02,5.49.04,3.73.51,24.19-.45,25.58-1.68,2.42-11.72.38-14.56-.06v-31c.66-.04,1.34.02,2,0Z"/>
  <path class="cls-3" d="M11,131h-2v-35.5c0-.17,1.35-1.58,2-1.5v37Z"/>
  <path class="cls-2" d="M16,131c-.32.02-.68.02-1,0v-37c.25-.05.75-.05,1,0v37Z"/>
  <rect class="cls-3" x="27" y="94" width="1" height="37"/>
  <path class="cls-2" d="M74,128c1.2-.27,4.82.68,5.02-.58,1.39-8.89-1.07-21.13-.02-30.42,1.43.47.97,1.33,1.04,2.45.39,5.94.91,21.83-.04,27.05-.6,3.29-5.32,3.44-6,1.5Z"/>
  <path class="cls-3" d="M111,5v62.5c0,.11-1.39,1.5-1.5,1.5H6.5c-.18,0-2.5-2.32-2.5-2.5V6.5c0-.11,1.39-1.5,1.5-1.5h105.5ZM17,26c-7.33.2-7.63,23.31,0,22v-22ZM32,45c.5-1.1,0-12.85,0-15.5,0-3.77-11.1-2.1-12.99-3.5-2.23,7.14,6.66,2.66,8,3.99.52.52.26,13.74-.94,14.57-1.54,1.06-5.12.19-7.07.44v2.99c5.55-.29,7.63,1.71,11.4-2.63.48-.55,1.57-.29,1.61-.37ZM46,26c-1.18-.78-5,3.18-5,3.5v18.5h5v-22ZM59.99,26c-3.72,1.58-8.27,1.58-11.98,0v4s11.99,0,11.99,0v-4ZM73,28c-.5,7.26,3.56,19.42-7.01,17v2.99c3.93-.24,10.01,1.61,10.98-3.52.32-1.71.44-14.64.09-15.93-.33-1.21-2.68-.26-3.07-.54-.17-.12-.66-4.83-1,0ZM86,28c-1.03,1.79.77,16.56,0,20.01h5.01s-.01-22-.01-22c-.16-.23-2.08.99-2.99,1-.52,0-2.4-2.92-2,1ZM93,42c12.03,2.75,17.68-6.28,10.05-15.44-2.2,1.16-9.32-1.12-10.04.96-1.52,4.36,5.81,1.92,8,2.48v7.43c-4.07,1.89-9.56-2.14-8.01,4.57ZM58.01,36h-10.01v2.99h10.01v-2.99Z"/>
  <path class="cls-1" d="M32,45c-.03.08-1.13-.18-1.61.37-3.77,4.33-5.85,2.33-11.4,2.63v-2.99c1.95-.25,5.53.62,7.07-.44,1.2-.83,1.46-14.05.94-14.57-1.33-1.34-10.23,3.15-8-3.99,1.89,1.4,12.99-.27,12.99,3.5,0,2.65.5,14.4,0,15.5Z"/>
  <path class="cls-2" d="M93,42c-1.55-6.71,3.94-2.68,8.02-4.57v-7.43c-2.2-.57-9.53,1.87-8.01-2.48.72-2.07,7.84.2,10.04-.96,7.62,9.17,1.98,18.19-10.05,15.44Z"/>
  <path class="cls-2" d="M46,26v22h-5v-18.5c0-.32,3.82-4.28,5-3.5Z"/>
  <path class="cls-1" d="M88,27c.91,0,2.83-1.23,2.99-1v22s-5,0-5,0c.78-3.44-1.03-18.22,0-20.01.06-.1,1.77.02,2-1Z"/>
  <path class="cls-2" d="M17,26v22c-7.63,1.31-7.33-21.8,0-22Z"/>
  <path class="cls-1" d="M74,28c.39.28,2.74-.67,3.07.54.35,1.29.23,14.22-.09,15.93-.97,5.14-7.05,3.28-10.98,3.52v-2.99c10.57,2.42,6.5-9.75,7.01-17h1Z"/>
  <path class="cls-2" d="M59.99,26v4s-11.99,0-11.99,0v-4c3.72,1.58,8.27,1.58,11.99,0Z"/>
  <rect class="cls-2" x="47.99" y="36" width="10.01" height="2.99"/>
  <path class="cls-2" d="M88,27c-.23,1.02-1.94.9-2,1-.4-3.92,1.48-1,2-1Z"/>
  <path class="cls-2" d="M74,28h-1c.34-4.83.83-.12,1,0Z"/>
</svg>